<svg width="41" height="41" viewBox="0 0 41 41" fill="none" xmlns="http://www.w3.org/2000/svg">
<circle cx="20.5" cy="20.5" r="17.5" fill="#3D3D3B"/>
<g clip-path="url(#clip0_54_51)">
<path d="M26.2212 16.6859H24.3141C24.3141 15.6743 23.9123 14.7042 23.197 13.9889C22.4817 13.2736 21.5116 12.8718 20.5 12.8718C19.4885 12.8718 18.5183 13.2736 17.8031 13.9889C17.0878 14.7042 16.6859 15.6743 16.6859 16.6859H14.7789C14.2731 16.6859 13.788 16.8868 13.4304 17.2445C13.0727 17.6021 12.8718 18.0872 12.8718 18.5929V24.9498C12.8728 25.7924 13.208 26.6003 13.8039 27.1962C14.3997 27.792 15.2076 28.1272 16.0502 28.1282H24.9498C25.7925 28.1272 26.6003 27.792 27.1962 27.1962C27.792 26.6003 28.1272 25.7924 28.1282 24.9498V18.5929C28.1282 18.0872 27.9273 17.6021 27.5697 17.2445C27.212 16.8868 26.727 16.6859 26.2212 16.6859ZM20.5 14.1432C21.1744 14.1432 21.8212 14.4111 22.298 14.8879C22.7749 15.3648 23.0428 16.0115 23.0428 16.6859H17.9573C17.9573 16.0115 18.2252 15.3648 18.702 14.8879C19.1789 14.4111 19.8257 14.1432 20.5 14.1432ZM26.8569 24.9498C26.8569 25.4556 26.6559 25.9406 26.2983 26.2983C25.9407 26.6559 25.4556 26.8568 24.9498 26.8568H16.0502C15.5445 26.8568 15.0594 26.6559 14.7018 26.2983C14.3441 25.9406 14.1432 25.4556 14.1432 24.9498V18.5929C14.1432 18.4244 14.2102 18.2627 14.3294 18.1435C14.4486 18.0242 14.6103 17.9573 14.7789 17.9573H16.6859V19.2286C16.6859 19.3972 16.7529 19.5589 16.8721 19.6781C16.9913 19.7973 17.153 19.8643 17.3216 19.8643C17.4902 19.8643 17.6519 19.7973 17.7711 19.6781C17.8903 19.5589 17.9573 19.3972 17.9573 19.2286V17.9573H23.0428V19.2286C23.0428 19.3972 23.1097 19.5589 23.229 19.6781C23.3482 19.7973 23.5099 19.8643 23.6784 19.8643C23.847 19.8643 24.0087 19.7973 24.1279 19.6781C24.2472 19.5589 24.3141 19.3972 24.3141 19.2286V17.9573H26.2212C26.3898 17.9573 26.5515 18.0242 26.6707 18.1435C26.7899 18.2627 26.8569 18.4244 26.8569 18.5929V24.9498Z" fill="#C2C2C2"/>
</g>
<circle cx="20.5" cy="20.5" r="20" stroke="#3D3D3B"/>
<defs>
<clipPath id="clip0_54_51">
<rect width="15.2564" height="15.2564" fill="white" transform="translate(12.8718 12.8718)"/>
</clipPath>
</defs>
</svg>
