<svg width="16" height="30" viewBox="0 0 16 30" fill="none" xmlns="http://www.w3.org/2000/svg">
<path d="M14.0833 10.5834L4.52085 1.02086C4.13051 0.632834 3.60249 0.415039 3.0521 0.415039C2.50171 0.415039 1.97369 0.632834 1.58335 1.02086C1.38808 1.21453 1.23309 1.44495 1.12733 1.69882C1.02156 1.9527 0.967102 2.225 0.967102 2.50002C0.967102 2.77505 1.02156 3.04735 1.12733 3.30122C1.23309 3.5551 1.38808 3.78552 1.58335 3.97919L11.1667 13.5209C11.3619 13.7145 11.5169 13.9449 11.6227 14.1988C11.7285 14.4527 11.7829 14.725 11.7829 15C11.7829 15.275 11.7285 15.5474 11.6227 15.8012C11.5169 16.0551 11.3619 16.2855 11.1667 16.4792L1.58335 26.0209C1.19105 26.4104 0.96956 26.9398 0.967607 27.4927C0.965653 28.0455 1.1834 28.5765 1.57293 28.9688C1.96247 29.3611 2.49189 29.5826 3.04473 29.5845C3.59757 29.5865 4.12855 29.3687 4.52085 28.9792L14.0833 19.4167C15.2538 18.2448 15.9112 16.6563 15.9112 15C15.9112 13.3438 15.2538 11.7552 14.0833 10.5834Z" fill="#C2C2C2"/>
</svg>
