<svg width="19" height="19" viewBox="0 0 19 19" fill="none" xmlns="http://www.w3.org/2000/svg">
<g id="heart-filled 1" clip-path="url(#clip0_189_775)">
<path id="Vector" d="M13.8543 1.51758C12.9629 1.53144 12.0909 1.7803 11.3264 2.239C10.5618 2.69771 9.93191 3.35002 9.50017 4.13008C9.06843 3.35002 8.43849 2.69771 7.67398 2.239C6.90947 1.7803 6.03746 1.53144 5.146 1.51758C3.72491 1.57932 2.38602 2.20099 1.42183 3.24676C0.457642 4.29254 -0.0534654 5.67741 0.00017043 7.09883C0.00017043 10.6985 3.78909 14.63 6.96684 17.2955C7.67634 17.8917 8.57341 18.2186 9.50017 18.2186C10.4269 18.2186 11.324 17.8917 12.0335 17.2955C15.2113 14.63 19.0002 10.6985 19.0002 7.09883C19.0538 5.67741 18.5427 4.29254 17.5785 3.24676C16.6143 2.20099 15.2754 1.57932 13.8543 1.51758Z" fill="#AE0000"/>
</g>
<defs>
<clipPath id="clip0_189_775">
<rect width="19" height="19" fill="white"/>
</clipPath>
</defs>
</svg>
