<svg width="41" height="41" viewBox="0 0 41 41" fill="none" xmlns="http://www.w3.org/2000/svg">
<circle cx="20.5" cy="20.5" r="17.5" fill="#3D3D3B"/>
<circle cx="20.5" cy="20.5" r="20" stroke="#3D3D3B"/>
<g clip-path="url(#clip0_130_1387)">
<path d="M24.9257 13.6801C24.0196 13.6938 23.1332 13.9406 22.3562 14.3954C21.5791 14.8502 20.9388 15.497 20.5 16.2705C20.0611 15.497 19.4209 14.8502 18.6438 14.3954C17.8667 13.9406 16.9804 13.6938 16.0743 13.6801C14.6298 13.7413 13.2689 14.3577 12.2889 15.3946C11.3089 16.4316 10.7894 17.8048 10.8439 19.2142C10.8439 22.7835 14.6951 26.6817 17.925 29.3247C18.6462 29.9159 19.558 30.2401 20.5 30.2401C21.442 30.2401 22.3538 29.9159 23.0749 29.3247C26.3049 26.6817 30.1561 22.7835 30.1561 19.2142C30.2106 17.8048 29.6911 16.4316 28.7111 15.3946C27.731 14.3577 26.3701 13.7413 24.9257 13.6801ZM22.0409 28.1237C21.6096 28.478 21.0639 28.6723 20.5 28.6723C19.9361 28.6723 19.3903 28.478 18.959 28.1237C14.8246 24.7397 12.4532 21.493 12.4532 19.2142C12.3982 18.221 12.748 17.2468 13.4264 16.5042C14.1047 15.7616 15.0565 15.3107 16.0743 15.25C17.092 15.3107 18.0438 15.7616 18.7222 16.5042C19.4005 17.2468 19.7503 18.221 19.6953 19.2142C19.6953 19.4224 19.7801 19.622 19.931 19.7692C20.0819 19.9165 20.2866 19.9992 20.5 19.9992C20.7134 19.9992 20.9181 19.9165 21.069 19.7692C21.2199 19.622 21.3047 19.4224 21.3047 19.2142C21.2496 18.221 21.5995 17.2468 22.2778 16.5042C22.9561 15.7616 23.908 15.3107 24.9257 15.25C25.9434 15.3107 26.8953 15.7616 27.5736 16.5042C28.2519 17.2468 28.6017 18.221 28.5467 19.2142C28.5467 21.493 26.1754 24.7397 22.0409 28.1206V28.1237Z" fill="#C2C2C2"/>
</g>
<defs>
<clipPath id="clip0_130_1387">
<rect width="23" height="23" fill="white" transform="translate(8.99998 10)"/>
</clipPath>
</defs>
</svg>
