<svg width="238" height="24" viewBox="0 0 238 24" fill="none" xmlns="http://www.w3.org/2000/svg">
<path d="M3.7619 5.24V0.599998H13.7779V5.24H3.7619ZM3.7619 14.008V9.656H13.4579V14.008H3.7619ZM0.177898 0.599998H5.3619V23H0.177898V0.599998Z" fill="#FF8E26"/>
<path d="M28.4254 0.599998H33.8334V18.36H42.8254V23H28.4254V0.599998ZM59.4757 23V18.552H70.7717V23H59.4757ZM59.4757 5.048V0.599998H70.7717V5.048H59.4757ZM59.4757 13.4V9.048H70.1317V13.4H59.4757ZM55.8917 0.599998H61.0757V23H55.8917V0.599998ZM98.0209 0.599998H104.709L97.6689 11.512L105.189 23H98.5009L94.4049 15.544L90.1809 23H83.4929L91.1729 11.512L84.2929 0.599998H90.9809L94.4369 7.096L98.0209 0.599998ZM120.694 15.128C121.142 15.9387 121.644 16.6427 122.198 17.24C122.774 17.8373 123.393 18.296 124.054 18.616C124.737 18.936 125.452 19.096 126.198 19.096C126.988 19.096 127.638 18.904 128.15 18.52C128.662 18.1147 128.918 17.5707 128.918 16.888C128.918 16.312 128.769 15.8533 128.47 15.512C128.172 15.1493 127.692 14.808 127.03 14.488C126.369 14.168 125.494 13.8053 124.406 13.4C123.873 13.208 123.254 12.9413 122.55 12.6C121.868 12.2587 121.217 11.8213 120.598 11.288C119.98 10.7333 119.468 10.072 119.062 9.304C118.657 8.51467 118.454 7.56533 118.454 6.456C118.454 5.13333 118.796 3.992 119.478 3.032C120.182 2.072 121.121 1.34667 122.294 0.855999C123.489 0.343999 124.812 0.0879993 126.262 0.0879993C127.756 0.0879993 129.046 0.333333 130.134 0.823999C131.244 1.31467 132.161 1.93333 132.886 2.68C133.612 3.42667 134.166 4.184 134.55 4.952L130.422 7.256C130.102 6.72267 129.729 6.264 129.302 5.88C128.897 5.47467 128.438 5.16533 127.926 4.952C127.436 4.71733 126.902 4.6 126.326 4.6C125.558 4.6 124.972 4.77067 124.566 5.112C124.161 5.432 123.958 5.83733 123.958 6.328C123.958 6.84 124.15 7.288 124.534 7.672C124.94 8.056 125.505 8.408 126.23 8.728C126.977 9.048 127.873 9.38933 128.918 9.752C129.708 10.0507 130.444 10.4027 131.126 10.808C131.809 11.192 132.406 11.6613 132.918 12.216C133.452 12.7707 133.868 13.4107 134.166 14.136C134.465 14.8613 134.614 15.6933 134.614 16.632C134.614 17.7627 134.38 18.776 133.91 19.672C133.462 20.5467 132.844 21.2827 132.054 21.88C131.286 22.4773 130.401 22.9253 129.398 23.224C128.417 23.544 127.404 23.704 126.358 23.704C124.908 23.704 123.553 23.448 122.294 22.936C121.057 22.4027 119.98 21.688 119.062 20.792C118.145 19.896 117.43 18.9147 116.918 17.848L120.694 15.128ZM150.294 13.624V8.76H167.254V13.624H150.294ZM163.83 0.599998H169.238V23H163.83V0.599998ZM148.79 0.599998H154.198V23H148.79V0.599998ZM188.955 11.8C188.955 13.1227 189.211 14.296 189.723 15.32C190.256 16.3227 190.992 17.112 191.931 17.688C192.891 18.264 194.011 18.552 195.291 18.552C196.549 18.552 197.648 18.264 198.587 17.688C199.547 17.112 200.283 16.3227 200.795 15.32C201.328 14.296 201.595 13.1227 201.595 11.8C201.595 10.4773 201.339 9.31467 200.827 8.312C200.315 7.288 199.589 6.488 198.651 5.912C197.712 5.336 196.592 5.048 195.291 5.048C194.011 5.048 192.891 5.336 191.931 5.912C190.992 6.488 190.256 7.288 189.723 8.312C189.211 9.31467 188.955 10.4773 188.955 11.8ZM183.227 11.8C183.227 10.072 183.525 8.49333 184.123 7.064C184.741 5.63467 185.595 4.39733 186.683 3.352C187.771 2.30667 189.051 1.50667 190.523 0.952C191.995 0.375999 193.584 0.0879993 195.291 0.0879993C197.019 0.0879993 198.608 0.375999 200.059 0.952C201.531 1.50667 202.811 2.30667 203.899 3.352C204.987 4.39733 205.829 5.63467 206.427 7.064C207.024 8.49333 207.323 10.072 207.323 11.8C207.323 13.528 207.024 15.1173 206.427 16.568C205.851 18.0187 205.019 19.2773 203.931 20.344C202.864 21.4107 201.595 22.2427 200.123 22.84C198.651 23.416 197.04 23.704 195.291 23.704C193.52 23.704 191.899 23.416 190.427 22.84C188.955 22.2427 187.675 21.4107 186.587 20.344C185.52 19.2773 184.688 18.0187 184.091 16.568C183.515 15.1173 183.227 13.528 183.227 11.8ZM221.348 0.599998H226.756V23H221.348V0.599998ZM224.74 5.048V0.599998H229.124C231.023 0.599998 232.612 0.898665 233.892 1.496C235.193 2.072 236.175 2.904 236.836 3.992C237.497 5.08 237.828 6.392 237.828 7.928C237.828 9.42133 237.497 10.7227 236.836 11.832C236.175 12.92 235.193 13.7627 233.892 14.36C232.612 14.936 231.023 15.224 229.124 15.224H224.74V10.776H229.124C230.212 10.776 231.065 10.5307 231.684 10.04C232.303 9.54933 232.612 8.84533 232.612 7.928C232.612 6.98933 232.303 6.27467 231.684 5.784C231.065 5.29333 230.212 5.048 229.124 5.048H224.74Z" fill="#C2C2C2"/>
</svg>
