<svg width="200" height="200" viewBox="0 0 200 200" fill="none" xmlns="http://www.w3.org/2000/svg">
<rect width="200" height="200" rx="52" fill="#121212"/>
<rect x="12" y="12" width="176" height="176" rx="52" fill="#101010"/>
<rect x="23" y="23" width="154" height="154" rx="52" fill="#0D0D0D"/>
<rect x="36" y="36" width="128" height="128" rx="52" fill="#0A0A0A"/>
<path d="M40.2572 91.8V86H52.7772V91.8H40.2572ZM40.2572 102.76V97.32H52.3772V102.76H40.2572ZM35.7772 86H42.2572V114H35.7772V86Z" fill="#FF8E26" fill-opacity="0.1"/>
<path d="M71.0866 86H77.8466V108.2H89.0866V114H71.0866V86ZM109.899 114V108.44H124.019V114H109.899ZM109.899 91.56V86H124.019V91.56H109.899ZM109.899 102V96.56H123.219V102H109.899ZM105.419 86H111.899V114H105.419V86ZM158.081 86H166.441L157.641 99.64L167.041 114H158.681L153.561 104.68L148.281 114H139.921L149.521 99.64L140.921 86H149.281L153.601 94.12L158.081 86Z" fill="#C2C2C2" fill-opacity="0.1"/>
<path d="M34.2829 90.58V84.2H48.0549V90.58H34.2829ZM34.2829 102.636V96.652H47.6149V102.636H34.2829ZM29.3549 84.2H36.4829V115H29.3549V84.2Z" fill="#FF8E26" fill-opacity="0.3"/>
<path d="M68.1952 84.2H75.6312V108.62H87.9952V115H68.1952V84.2ZM110.889 115V108.884H126.421V115H110.889ZM110.889 90.316V84.2H126.421V90.316H110.889ZM110.889 101.8V95.816H125.541V101.8H110.889ZM105.961 84.2H113.089V115H105.961V84.2ZM163.889 84.2H173.085L163.405 99.204L173.745 115H164.549L158.917 104.748L153.109 115H143.913L154.473 99.204L145.013 84.2H154.209L158.961 93.132L163.889 84.2Z" fill="#C2C2C2" fill-opacity="0.3"/>
<path d="M28.3086 90.36V83.4H43.3326V90.36H28.3086ZM28.3086 103.512V96.984H42.8526V103.512H28.3086ZM22.9326 83.4H30.7086V117H22.9326V83.4Z" fill="#FF8E26"/>
<path d="M65.3039 83.4H73.4159V110.04H86.9039V117H65.3039V83.4ZM111.879 117V110.328H128.823V117H111.879ZM111.879 90.072V83.4H128.823V90.072H111.879ZM111.879 102.6V96.072H127.863V102.6H111.879ZM106.503 83.4H114.279V117H106.503V83.4ZM169.697 83.4H179.729L169.169 99.768L180.449 117H170.417L164.273 105.816L157.937 117H147.905L159.425 99.768L149.105 83.4H159.137L164.321 93.144L169.697 83.4Z" fill="#C2C2C2"/>
</svg>
