<svg width="100" height="100" viewBox="0 0 100 100" fill="none" xmlns="http://www.w3.org/2000/svg">
<g id="plus 1" clip-path="url(#clip0_131_1212)">
<g id="Group">
<path id="Vector" d="M93.75 43.75H56.25V6.25C56.25 2.79824 53.4518 0 50 0C46.5482 0 43.75 2.79824 43.75 6.25V43.75H6.25C2.79824 43.75 0 46.5482 0 50C0 53.4518 2.79824 56.25 6.25 56.25H43.75V93.75C43.75 97.2018 46.5482 100 50 100C53.4518 100 56.25 97.2018 56.25 93.75V56.25H93.75C97.2018 56.25 100 53.4518 100 50C100 46.5482 97.2018 43.75 93.75 43.75Z" fill="#C2C2C2"/>
</g>
</g>
<defs>
<clipPath id="clip0_131_1212">
<rect width="100" height="100" fill="white"/>
</clipPath>
</defs>
</svg>
